<svg width="94" height="60" fill="none" xmlns="http://www.w3.org/2000/svg"><path fill="#0AA0EF" d="M0 2h47v58H0z"/><path fill="#E68917" d="M47 2h47v58H47z"/><path d="M5.345 32.025c0-4.07.77-7.608 2.31-10.615 1.577-3.007 3.832-5.317 6.765-6.93 2.97-1.613 6.472-2.42 10.505-2.42 2.31 0 4.382.238 6.215.715a29.821 29.821 0 015.39 1.98v6.765h-.22c-1.283-.77-2.878-1.412-4.785-1.925-1.87-.55-3.887-.825-6.05-.825-8.323 0-12.485 4.382-12.485 13.145 0 4.29.99 7.535 2.97 9.735 1.98 2.2 4.877 3.3 8.69 3.3 3.08 0 5.372-.642 6.875-1.925V37.25h-7.26V31.2h14.52v15.675c-2.933 1.797-5.463 3.043-7.59 3.74-2.127.697-4.382 1.045-6.765 1.045-4.033 0-7.48-.807-10.34-2.42-2.86-1.613-5.042-3.887-6.545-6.82-1.467-2.97-2.2-6.435-2.2-10.395zM70.545 51.66c-2.053 0-4.235-.275-6.545-.825a34.44 34.44 0 01-6.545-2.255v-7.04c4.767 2.567 9.02 3.85 12.76 3.85 1.87 0 3.373-.403 4.51-1.21 1.173-.807 1.76-1.943 1.76-3.41 0-1.027-.33-1.888-.99-2.585-.623-.733-1.412-1.32-2.365-1.76-.953-.477-2.31-1.045-4.07-1.705-2.383-.88-4.327-1.723-5.83-2.53-1.503-.807-2.787-1.943-3.85-3.41-1.063-1.503-1.595-3.428-1.595-5.775 0-3.447 1.192-6.123 3.575-8.03 2.383-1.943 5.647-2.915 9.79-2.915 1.943 0 3.85.22 5.72.66 1.87.403 3.593 1.008 5.17 1.815v6.875c-3.703-2.053-7.278-3.08-10.725-3.08-1.907 0-3.41.348-4.51 1.045-1.063.66-1.595 1.613-1.595 2.86 0 1.247.55 2.237 1.65 2.97 1.137.697 2.878 1.467 5.225 2.31 2.457.917 4.473 1.797 6.05 2.64 1.577.843 2.933 2.072 4.07 3.685 1.173 1.577 1.797 3.63 1.87 6.16 0 3.63-1.228 6.49-3.685 8.58-2.457 2.053-5.738 3.08-9.845 3.08z" fill="#fff"/></svg>